<?xml version="1.0" encoding="UTF-8" standalone="no"?>
<!DOCTYPE svg PUBLIC "-//W3C//DTD SVG 1.1//EN" "http://www.w3.org/Graphics/SVG/1.1/DTD/svg11.dtd">
<svg width="100%" height="100%" viewBox="0 0 1614 1516" version="1.1" xmlns="http://www.w3.org/2000/svg" xmlns:xlink="http://www.w3.org/1999/xlink" xml:space="preserve" xmlns:serif="http://www.serif.com/" style="fill-rule:evenodd;clip-rule:evenodd;stroke-linejoin:round;stroke-miterlimit:2;">
    <g transform="matrix(1,0,0,1,-185.528,-2201.64)">
        <g transform="matrix(1,0,0,1,7.9125e-05,2027.3)">
            <g transform="matrix(1.14509,0,0,1.14509,-163.552,166.06)">
                <path d="M810.093,851.537C778.471,944.953 673.547,1171.07 651.94,1195.5C642.208,1206.51 723.667,1260.88 747,1270C783.503,1284.27 775.99,1318.38 761,1327C713.617,1354.25 467.782,1241.55 365.453,1009.83C277.683,811.073 283.589,554.815 394.025,367.704C589.012,37.34 904.296,-2.417 1068.24,8.866C1311.05,25.576 1610.56,201.631 1691.79,509.551C1787.67,873.02 1552.27,1252.85 1385.83,1242.28C1219.05,1242.28 1165.46,970.34 1179.15,782.808C1179.5,778.057 1008.61,989.604 923.209,977C829.98,963.241 811.43,847.588 810.093,851.537ZM1012.43,198.603C816.15,198.603 504.343,342.849 473.788,716.839C457.802,912.508 571.388,1049.16 572,1054C573.793,1054.94 618.527,916.473 668.753,788.386C705.164,695.529 747.125,607.758 764.86,584.316C780.318,563.884 805.887,549.726 835.151,548.769C863.528,547.842 890.959,563.103 902.604,581.995C937.73,638.981 947.878,781.887 956,780C963.792,778.19 1137.07,553.189 1224.46,548.608C1372.67,540.837 1341.4,769.993 1339,818C1330.28,992.3 1375.65,1111.32 1382.78,1112.82C1391.61,1114.68 1513.76,1044.55 1543.17,805.88C1593.28,399.159 1309.3,198.603 1012.43,198.603Z" style="fill:white;"/>
            </g>
        </g>
    </g>
</svg>
